<svg width="64" height="64" viewBox="0 0 64 64" fill="none" xmlns="http://www.w3.org/2000/svg" role="img" aria-label="TrackLifts">
  <defs>
    <linearGradient id="tlEmber" x1="14" y1="6" x2="50" y2="58" gradientUnits="userSpaceOnUse">
      <stop stop-color="#FFB23E"/>
      <stop offset="0.5" stop-color="#FF7A33"/>
      <stop offset="1" stop-color="#F24E1E"/>
    </linearGradient>
  </defs>
  <!-- Ember flame -->
  <path d="M33.4 4.2c1.2 8.3-3.1 12.6-7.8 16.7-4.7 4.1-9.9 9-9.9 17.4 0 9.6 7.3 17.5 17.1 17.5 10 0 17.4-7.6 17.4-17.9 0-5.6-2.3-10.2-5.2-13.2.3 2.6-.4 5.4-2.6 6.9 1-6.6-2.2-13.6-6.9-18.1 1.4 4.6.3 8-2.1 10.7-2.2-7.5-2.9-14.8-1.5-19.9-2 .9-3.9 2.3-5.4 4.1 .6-1.5 1-3 1.1-4.6.1-1.7-.1-3.4-.5-5z" fill="url(#tlEmber)"/>
  <!-- Inner highlight -->
  <path d="M32.5 51.6c-5 0-8.6-3.8-8.6-8.7 0-4.2 2.4-7 5.2-9.4-.4 2.9 .9 5.3 3.4 6.2 2.9 1 4.6-.6 5-2.3 2 2 3.2 4.8 3.2 7.7 0 4.3-3.4 8.5-8.2 8.5z" fill="#1B1D22" opacity="0.32"/>
</svg>
