<svg xmlns="http://www.w3.org/2000/svg" width="1200" height="630" viewBox="0 0 1200 630" fill="none">
  <defs>
    <linearGradient id="bg" x1="0" y1="0" x2="0" y2="630" gradientUnits="userSpaceOnUse">
      <stop stop-color="#17150F"/><stop offset="1" stop-color="#0B0A09"/>
    </linearGradient>
    <radialGradient id="emberGlow" cx="0.5" cy="0.5" r="0.5">
      <stop stop-color="#FF7A33" stop-opacity="0.40"/><stop offset="1" stop-color="#FF7A33" stop-opacity="0"/>
    </radialGradient>
    <radialGradient id="coolGlow" cx="0.5" cy="0.5" r="0.5">
      <stop stop-color="#3A6EA5" stop-opacity="0.26"/><stop offset="1" stop-color="#3A6EA5" stop-opacity="0"/>
    </radialGradient>
    <linearGradient id="emberFlame" x1="545" y1="70" x2="655" y2="180" gradientUnits="userSpaceOnUse">
      <stop stop-color="#FFB23E"/><stop offset="0.5" stop-color="#FF7A33"/><stop offset="1" stop-color="#F24E1E"/>
    </linearGradient>
    <linearGradient id="emberRule" x1="0" y1="0" x2="46" y2="0" gradientUnits="userSpaceOnUse">
      <stop stop-color="#FFB23E"/><stop offset="1" stop-color="#F24E1E"/>
    </linearGradient>
  </defs>

  <rect width="1200" height="630" fill="url(#bg)"/>
  <ellipse cx="600" cy="40" rx="640" ry="360" fill="url(#emberGlow)"/>
  <ellipse cx="130" cy="650" rx="420" ry="320" fill="url(#coolGlow)"/>
  <rect x="0.75" y="0.75" width="1198.5" height="628.5" stroke="#FFFFFF" stroke-opacity="0.06" stroke-width="1.5"/>

  <!-- Flame mark, centered top -->
  <circle cx="600" cy="130" r="118" fill="url(#emberGlow)"/>
  <g transform="translate(545,70) scale(1.71875)">
    <path d="M33.4 4.2c1.2 8.3-3.1 12.6-7.8 16.7-4.7 4.1-9.9 9-9.9 17.4 0 9.6 7.3 17.5 17.1 17.5 10 0 17.4-7.6 17.4-17.9 0-5.6-2.3-10.2-5.2-13.2.3 2.6-.4 5.4-2.6 6.9 1-6.6-2.2-13.6-6.9-18.1 1.4 4.6.3 8-2.1 10.7-2.2-7.5-2.9-14.8-1.5-19.9-2 .9-3.9 2.3-5.4 4.1 .6-1.5 1-3 1.1-4.6.1-1.7-.1-3.4-.5-5z" fill="url(#emberFlame)"/>
  </g>

  <!-- Eyebrow -->
  <text x="600" y="240" text-anchor="middle" font-family="Archivo" font-weight="700" font-size="25" letter-spacing="7" fill="#FF7A33">TRAIN · TRACK · REPEAT</text>

  <!-- Wordmark -->
  <text x="600" y="425" text-anchor="middle" font-family="Bebas Neue" font-size="176" letter-spacing="5" fill="#F5F2EA">TRACKLIFTS</text>

  <!-- Subtitle -->
  <text x="600" y="492" text-anchor="middle" font-family="Archivo" font-weight="400" font-size="30" fill="#9CA0A8">The strength log built for progressive overload.</text>

  <!-- Bottom meta -->
  <text x="600" y="566" text-anchor="middle" font-family="Archivo" font-weight="700" font-size="20" letter-spacing="3" fill="#676A72">69 EXERCISES · SPLITS · PROGRESS · PERSONAL RECORDS</text>
</svg>
